# xmcd CD database file
#
# Track frame offsets:
#	150
#	20791
#	31894
#	49295
#	63154
#	92499
#	118502
#	138106
#	162815
#	180063
#	192496
#	230151
#	250625
#	262170
#	277755
#	296336
#	311361
#	324866
#
# Disc length: 4585 seconds
#
# Revision: 0
# Processed by: cddbd v1.5.2PL0 Copyright (c) Steve Scherf et al.
# Submitted via: CDex 1.70
#
DISCID=eb11e712
DTITLE=Toots Thielemans - Toots 90 [CD1)
DYEAR=2012
DGENRE=Jazz
TTITLE0=Bluesette
TTITLE1=Commissaris Witse
TTITLE2=Turks Fruit
TTITLE3=Circle Of Smiles, Theme From "Baantjer"
TTITLE4=My Funny Valentine
TTITLE5=Theme From "Sumer Of 42"
TTITLE6=Dat Mistige Rooie Beest, From "Turks Fruit"
TTITLE7=The Man In Brown, From "Baantjer"
TTITLE8=Rosa Turbinata, From "Turks Fruit"
TTITLE9=Theme From "Midnight Cowboy"
TTITLE10=Someday My Prince Will Come
TTITLE11=Smile
TTITLE12=Ben
TTITLE13=Imagine
TTITLE14=Good Morning Heartache
TTITLE15=Talk To Me
TTITLE16=Honeysuckle Rose
TTITLE17=Dance For Victor
EXTD=YEAR: 2012
EXTT0=
EXTT1=
EXTT2=
EXTT3=
EXTT4=
EXTT5=
EXTT6=
EXTT7=
EXTT8=
EXTT9=
EXTT10=
EXTT11=
EXTT12=
EXTT13=
EXTT14=
EXTT15=
EXTT16=
EXTT17=
PLAYORDER=
